PathFileType	4	(X/Y/Z)	TVC_4_BWA_8_walk_RCNL2025.trc
DataRate	CameraRate	NumFrames	NumMarkers	Units	OrigDataRate	OrigDataStartFrame	OrigNumFrames
100	100	8	27	mm	100	221	294
Frame#	Time	R_Shoulder			L_Shoulder			C7			J_Notch			R_Elbow			L_Elbow			R_Wrist			L_Wrist			R_Asis			L_Asis			R_Psis			L_Psis			Sacral			Thoracic			Sternum			R_Thigh_Lateral			R_Knee_Lateral			R_Shank_Lateral			R_Ankle_Lateral			R_Heel			R_Toe			L_Thigh_Lateral			L_Knee_Lateral			L_Shank_Lateral			L_Ankle_Lateral			L_Heel			L_Toe		
		X1	Y1	Z1	X2	Y2	Z2	X3	Y3	Z3	X4	Y4	Z4	X5	Y5	Z5	X6	Y6	Z6	X7	Y7	Z7	X8	Y8	Z8	X9	Y9	Z9	X10	Y10	Z10	X11	Y11	Z11	X12	Y12	Z12	X13	Y13	Z13	X14	Y14	Z14	X15	Y15	Z15	X16	Y16	Z16	X17	Y17	Z17	X18	Y18	Z18	X19	Y19	Z19	X20	Y20	Z20	X21	Y21	Z21	X22	Y22	Z22	X23	Y23	Z23	X24	Y24	Z24	X25	Y25	Z25	X26	Y26	Z26	X27	Y27	Z27
221	2.20000000	482.717621	1287.163452	375.131958	492.879364	1319.974487	-4.353126	426.613922	1370.656006	201.044174	567.327637	1247.681152	172.653885	403.793060	979.592712	424.801788	483.797516	996.054688	-90.745369	442.380249	753.243622	422.520737	620.478455	829.230896	-60.137424	498.263275	861.940613	341.325989	440.071106	844.339172	-6.521883	334.465179	895.946106	242.720215	322.695831	893.197205	151.297501	328.580505	894.571655	197.008858	342.122925	1127.229858	185.695602	599.307190	1057.790161	160.010330	594.636597	531.325195	347.109558	600.988953	442.054565	294.567719	621.820618	269.866028	353.575195	621.816406	58.940392	259.180389	570.827393	49.673923	215.631241	749.303223	52.657028	228.926346	426.193115	488.664276	1.710820	401.393280	411.756226	54.083874	345.482574	301.671234	9.595760	230.284531	76.473488	92.679558	185.694626	77.931778	141.086288	359.760956	41.790302	105.265381
222	2.21000000	492.264679	1287.493408	376.482330	501.398071	1320.826416	-2.965313	435.676575	1371.178589	202.678360	576.342957	1248.324707	173.828323	414.130737	979.785400	426.093658	490.225494	996.861694	-89.318192	452.800308	753.463837	423.538223	626.297272	829.370544	-59.261919	507.476624	863.115662	342.316742	449.819061	844.696350	-5.147107	343.593811	896.700012	243.845398	331.626282	893.509644	152.398514	337.610046	895.104828	198.121956	351.076721	1127.758545	187.011871	608.277710	1058.536377	160.968338	602.858215	531.949524	347.330566	608.411560	442.285950	294.762726	628.751465	270.213715	353.582703	622.583557	58.826714	259.182831	571.406555	50.369446	215.857910	750.311340	50.911686	228.377518	437.059937	488.812042	2.790918	413.005493	412.522095	54.787033	353.700317	304.569031	9.731903	233.024673	82.057022	92.273605	188.921158	85.465294	140.698288	360.161896	41.579624	105.502968
223	2.22000000	501.782776	1288.016235	377.824005	509.851044	1321.809937	-1.580012	444.697571	1371.830933	204.304825	585.312134	1249.104248	175.002670	424.606995	980.124939	427.416901	496.483002	997.814270	-87.826622	463.653381	753.850281	424.502609	631.645203	829.420380	-58.426699	516.635681	864.405701	343.343140	459.385468	845.508911	-3.670521	352.669922	897.592041	245.009888	340.485687	893.964600	153.542603	346.577805	895.778320	199.276245	359.983582	1128.415771	188.358093	617.181519	1059.429199	161.953125	609.824036	532.148804	347.920380	614.960693	442.398987	295.163940	634.089844	270.232178	353.908875	623.304077	58.767765	259.219391	571.991638	50.942936	216.089630	751.201416	49.702793	227.952530	448.870026	489.083435	3.619748	425.792511	413.416656	55.147964	363.173859	307.790314	9.485522	236.535690	88.333130	91.573128	193.047882	94.015480	139.910950	360.705414	41.451923	105.720497
224	2.23000000	511.271851	1288.710815	379.148651	518.231567	1322.902100	-0.205804	453.671143	1372.596680	205.914825	594.229614	1250.000610	176.166504	435.198425	980.594910	428.769592	502.586334	998.890747	-86.282410	474.928146	754.393951	425.413284	636.543823	829.375427	-57.635111	525.744751	865.768738	344.394653	468.637939	846.734680	-2.141269	361.690826	898.599670	246.210098	349.268524	894.546448	154.729385	355.479675	896.573059	200.469742	368.838928	1129.185059	189.733765	626.014709	1060.441162	162.949570	615.508118	531.941895	348.841705	620.628845	442.391907	295.772766	637.574646	269.922028	354.504333	623.950562	58.738636	259.273041	572.534424	51.382439	216.308777	751.937927	48.917023	227.643356	461.684113	489.440216	4.147795	439.698822	414.382080	55.127979	373.992462	311.186310	8.842767	240.924316	95.190460	90.574242	198.175247	103.411583	138.718521	361.520111	41.478149	105.858978
225	2.24000000	520.731201	1289.550049	380.448395	526.533447	1324.076416	1.148688	462.592133	1373.456421	207.500137	603.090515	1250.991943	177.309830	445.883575	981.172791	430.149689	508.550171	1000.064758	-84.697449	486.610443	755.082214	426.270386	641.018494	829.231262	-56.890434	534.805420	867.163269	345.460785	477.474213	848.291809	-0.612048	370.654083	899.697266	247.439529	357.970734	895.236755	155.955887	364.312408	897.467010	201.697708	377.638763	1130.047974	191.138000	634.775146	1061.541748	163.942383	620.019531	531.410034	350.031342	625.472351	442.278625	296.573578	639.309326	269.361267	355.290466	624.498718	58.719398	259.329437	572.994324	51.695854	216.503510	752.504761	48.436241	227.434998	475.500885	489.862671	4.342932	454.602814	415.368622	54.712730	386.167694	314.602966	7.822046	246.287201	102.479073	89.296333	204.380051	113.407906	137.155579	362.795685	41.743813	105.834450
226	2.25000000	530.158813	1290.502930	381.716003	534.751526	1325.303955	2.474951	471.456024	1374.389893	209.053116	611.890564	1252.055176	178.423401	456.644012	981.831543	431.554657	514.387512	1001.306580	-83.083351	498.683273	755.899567	427.074738	645.097687	828.984467	-56.195745	543.815674	868.550659	346.531738	485.849457	850.059753	0.871957	379.557404	900.857605	248.688675	366.589966	896.015381	157.216461	373.073685	898.436493	202.952568	386.379486	1130.984863	192.569199	643.462219	1062.699829	164.916672	623.576538	530.673279	351.414551	629.603333	442.082489	297.535553	639.737366	268.660248	356.173553	624.936096	58.695522	259.377594	573.349182	51.905422	216.667618	752.909668	48.150631	227.313980	490.246185	490.354126	4.196090	470.324402	416.341949	53.916157	399.621704	317.905243	6.473821	252.707993	110.017456	87.779678	211.712540	123.695457	135.294022	364.785522	42.343349	105.541008
227	2.26000000	539.551270	1291.536987	382.945038	542.882202	1326.554810	3.764798	480.259125	1375.376099	210.566696	620.626221	1253.166138	179.498901	467.464905	982.541565	432.981140	520.109863	1002.584961	-81.451065	511.127136	756.828735	427.827728	648.812073	828.633057	-55.553822	552.769287	869.896790	347.598602	493.783875	851.894348	2.278340	388.398956	902.052917	249.945450	375.125275	896.861938	158.502991	381.762115	899.457428	204.224220	395.058014	1131.975342	194.024796	652.076904	1063.884888	165.858551	626.464478	529.861938	352.916779	633.174011	441.830292	298.616974	639.504028	267.919678	357.065887	625.264709	58.657372	259.410492	573.597290	52.041183	216.800415	753.179993	47.968388	227.271469	505.769379	490.940948	3.724767	486.640076	417.288483	52.781326	414.187744	320.999207	4.877430	260.257141	117.603149	86.079193	220.197906	133.922668	133.233978	367.796478	43.367001	104.860184
228	2.27000000	548.903198	1292.619507	384.129974	550.923584	1327.800049	5.010619	488.998657	1376.394897	212.034439	629.294861	1254.301758	180.529144	478.335541	983.272827	434.424957	525.727112	1003.868958	-79.810600	523.920059	757.851929	428.531021	652.193939	828.176910	-54.967020	561.656006	871.173828	348.653778	501.348083	853.653748	3.586256	397.177246	903.255798	251.195801	383.577332	897.756470	159.805222	390.377289	900.506134	205.500511	403.671997	1132.999878	195.501007	660.621033	1065.068726	166.755707	628.996704	529.091003	354.468628	636.357178	441.546356	299.770233	639.276184	267.209045	357.902863	625.499146	58.599514	259.425049	573.753662	52.134594	216.905853	753.353760	47.821480	227.301437	521.848816	491.668488	2.972913	503.303711	418.217407	51.377720	429.625458	323.846954	3.134788	268.991882	125.024940	84.256302	229.841797	143.723755	131.090439	372.161865	44.880566	103.676384
